<?xml version="1.0" encoding="UTF-8" standalone="no"?>
<!DOCTYPE svg PUBLIC "-//W3C//DTD SVG 1.1//EN"
 "http://www.w3.org/Graphics/SVG/1.1/DTD/svg11.dtd">
<!-- Generated by graphviz version 8.0.5 (20230430.1635)
 -->
<!-- Pages: 1 -->
<svg width="957pt" height="514pt"
 viewBox="0.00 0.00 956.80 513.86" xmlns="http://www.w3.org/2000/svg" xmlns:xlink="http://www.w3.org/1999/xlink">
<g id="graph0" class="graph" transform="scale(1 1) rotate(0) translate(4 509.86)">
<polygon fill="white" stroke="none" points="-4,4 -4,-509.86 952.8,-509.86 952.8,4 -4,4"/>
<!-- 0_0 -->
<g id="node1" class="node">
<title>0_0</title>
<ellipse fill="none" stroke="black" cx="48.44" cy="-27.93" rx="43.66" ry="27.93"/>
<text text-anchor="middle" x="48.44" y="-30.38" font-family="Times New Roman,serif" font-size="14.00">(0, 0)</text>
<text text-anchor="middle" x="48.44" y="-14.63" font-family="Times New Roman,serif" font-size="14.00">bary 2.5</text>
</g>
<!-- 1_vnode_0_0_3_3 -->
<g id="node2" class="node">
<title>1_vnode_0_0_3_3</title>
<ellipse fill="none" stroke="black" cx="48.44" cy="-177.93" rx="0.36" ry="0.72"/>
<text text-anchor="middle" x="48.44" y="-180.38" font-family="Times New Roman,serif" font-size="14.00">(0, 1)</text>
<text text-anchor="middle" x="48.44" y="-164.63" font-family="Times New Roman,serif" font-size="14.00">bary &#45;1000.0</text>
</g>
<!-- 0_0&#45;&#45;1_vnode_0_0_3_3 -->
<g id="edge1" class="edge">
<title>0_0&#45;&#45;1_vnode_0_0_3_3</title>
<path fill="none" stroke="black" d="M48.44,-56.14C48.44,-96.54 48.44,-167.09 48.44,-176.81"/>
</g>
<!-- 1_vnode_0_0_2_1 -->
<g id="node3" class="node">
<title>1_vnode_0_0_2_1</title>
<ellipse fill="none" stroke="black" cx="198.44" cy="-177.93" rx="0.36" ry="0.72"/>
<text text-anchor="middle" x="198.44" y="-180.38" font-family="Times New Roman,serif" font-size="14.00">(1, 1)</text>
<text text-anchor="middle" x="198.44" y="-164.63" font-family="Times New Roman,serif" font-size="14.00">bary &#45;998.0</text>
</g>
<!-- 0_0&#45;&#45;1_vnode_0_0_2_1 -->
<g id="edge2" class="edge">
<title>0_0&#45;&#45;1_vnode_0_0_2_1</title>
<path fill="none" stroke="black" d="M72.2,-51.7C112.52,-92.01 190.66,-170.15 197.9,-177.39"/>
</g>
<!-- 1_0 -->
<g id="node4" class="node">
<title>1_0</title>
<ellipse fill="none" stroke="black" cx="648.44" cy="-177.93" rx="43.66" ry="27.93"/>
<text text-anchor="middle" x="648.44" y="-180.38" font-family="Times New Roman,serif" font-size="14.00">(4, 1)</text>
<text text-anchor="middle" x="648.44" y="-164.63" font-family="Times New Roman,serif" font-size="14.00">bary 2.0</text>
</g>
<!-- 0_0&#45;&#45;1_0 -->
<g id="edge3" class="edge">
<title>0_0&#45;&#45;1_0</title>
<path fill="none" stroke="black" d="M89.21,-38.12C198.67,-65.49 498.09,-140.34 607.61,-167.72"/>
</g>
<!-- 1_1 -->
<g id="node5" class="node">
<title>1_1</title>
<ellipse fill="none" stroke="black" cx="798.44" cy="-177.93" rx="43.66" ry="27.93"/>
<text text-anchor="middle" x="798.44" y="-180.38" font-family="Times New Roman,serif" font-size="14.00">(5, 1)</text>
<text text-anchor="middle" x="798.44" y="-164.63" font-family="Times New Roman,serif" font-size="14.00">bary 4.5</text>
</g>
<!-- 0_0&#45;&#45;1_1 -->
<g id="edge4" class="edge">
<title>0_0&#45;&#45;1_1</title>
<path fill="none" stroke="black" d="M90.37,-36.32C221.78,-62.6 624.69,-143.18 756.34,-169.51"/>
</g>
<!-- 2_vnode_0_0_3_3 -->
<g id="node11" class="node">
<title>2_vnode_0_0_3_3</title>
<ellipse fill="none" stroke="black" cx="48.44" cy="-327.93" rx="0.36" ry="0.72"/>
<text text-anchor="middle" x="48.44" y="-330.38" font-family="Times New Roman,serif" font-size="14.00">(0, 2)</text>
<text text-anchor="middle" x="48.44" y="-314.63" font-family="Times New Roman,serif" font-size="14.00">bary &#45;1000.0</text>
</g>
<!-- 1_vnode_0_0_3_3&#45;&#45;2_vnode_0_0_3_3 -->
<g id="edge11" class="edge">
<title>1_vnode_0_0_3_3&#45;&#45;2_vnode_0_0_3_3</title>
<path fill="none" stroke="black" d="M48.44,-178.89C48.44,-191.06 48.44,-315.43 48.44,-327.06"/>
</g>
<!-- 2_1 -->
<g id="node12" class="node">
<title>2_1</title>
<ellipse fill="none" stroke="black" cx="348.44" cy="-327.93" rx="43.66" ry="27.93"/>
<text text-anchor="middle" x="348.44" y="-330.38" font-family="Times New Roman,serif" font-size="14.00">(2, 2)</text>
<text text-anchor="middle" x="348.44" y="-314.63" font-family="Times New Roman,serif" font-size="14.00">bary 1.5</text>
</g>
<!-- 1_vnode_0_0_2_1&#45;&#45;2_1 -->
<g id="edge12" class="edge">
<title>1_vnode_0_0_2_1&#45;&#45;2_1</title>
<path fill="none" stroke="black" d="M199.11,-178.6C207.09,-186.59 284.68,-264.18 324.75,-304.24"/>
</g>
<!-- 1_0&#45;&#45;2_1 -->
<g id="edge16" class="edge">
<title>1_0&#45;&#45;2_1</title>
<path fill="none" stroke="black" d="M613.73,-195.28C556.05,-224.13 441.08,-281.61 383.29,-310.5"/>
</g>
<!-- 2_vnode_1_0_3_3 -->
<g id="node14" class="node">
<title>2_vnode_1_0_3_3</title>
<ellipse fill="none" stroke="black" cx="198.44" cy="-327.93" rx="0.36" ry="0.72"/>
<text text-anchor="middle" x="198.44" y="-330.38" font-family="Times New Roman,serif" font-size="14.00">(1, 2)</text>
<text text-anchor="middle" x="198.44" y="-314.63" font-family="Times New Roman,serif" font-size="14.00">bary &#45;1000.0</text>
</g>
<!-- 1_0&#45;&#45;2_vnode_1_0_3_3 -->
<g id="edge15" class="edge">
<title>1_0&#45;&#45;2_vnode_1_0_3_3</title>
<path fill="none" stroke="black" d="M609.29,-190.98C502.37,-226.62 212.46,-323.26 198.93,-327.77"/>
</g>
<!-- 2_0 -->
<g id="node15" class="node">
<title>2_0</title>
<ellipse fill="none" stroke="black" cx="498.44" cy="-327.93" rx="48.44" ry="27.93"/>
<text text-anchor="middle" x="498.44" y="-330.38" font-family="Times New Roman,serif" font-size="14.00">(3, 2)</text>
<text text-anchor="middle" x="498.44" y="-314.63" font-family="Times New Roman,serif" font-size="14.00">bary 2.25</text>
</g>
<!-- 1_0&#45;&#45;2_0 -->
<g id="edge17" class="edge">
<title>1_0&#45;&#45;2_0</title>
<path fill="none" stroke="black" d="M624.67,-201.7C596.75,-229.62 550.68,-275.69 522.59,-303.78"/>
</g>
<!-- 1_1&#45;&#45;2_0 -->
<g id="edge18" class="edge">
<title>1_1&#45;&#45;2_0</title>
<path fill="none" stroke="black" d="M763.73,-195.28C706.66,-223.82 593.53,-280.38 535.17,-309.57"/>
</g>
<!-- 2_vnode_1_1_3_0 -->
<g id="node16" class="node">
<title>2_vnode_1_1_3_0</title>
<ellipse fill="none" stroke="black" cx="948.44" cy="-327.93" rx="0.36" ry="0.72"/>
<text text-anchor="middle" x="948.44" y="-330.38" font-family="Times New Roman,serif" font-size="14.00">(6, 2)</text>
<text text-anchor="middle" x="948.44" y="-314.63" font-family="Times New Roman,serif" font-size="14.00">bary 1004.0</text>
</g>
<!-- 1_1&#45;&#45;2_vnode_1_1_3_0 -->
<g id="edge19" class="edge">
<title>1_1&#45;&#45;2_vnode_1_1_3_0</title>
<path fill="none" stroke="black" d="M822.2,-201.7C862.52,-242.01 940.66,-320.15 947.9,-327.39"/>
</g>
<!-- 0_1 -->
<g id="node6" class="node">
<title>0_1</title>
<ellipse fill="none" stroke="black" cx="198.44" cy="-27.93" rx="43.66" ry="27.93"/>
<text text-anchor="middle" x="198.44" y="-30.38" font-family="Times New Roman,serif" font-size="14.00">(1, 0)</text>
<text text-anchor="middle" x="198.44" y="-14.63" font-family="Times New Roman,serif" font-size="14.00">bary 3.5</text>
</g>
<!-- 0_1&#45;&#45;1_0 -->
<g id="edge6" class="edge">
<title>0_1&#45;&#45;1_0</title>
<path fill="none" stroke="black" d="M237.58,-40.98C322.8,-69.38 524.25,-136.54 609.38,-164.91"/>
</g>
<!-- 1_vnode_0_1_3_4 -->
<g id="node7" class="node">
<title>1_vnode_0_1_3_4</title>
<ellipse fill="none" stroke="black" cx="498.44" cy="-177.93" rx="0.36" ry="0.72"/>
<text text-anchor="middle" x="498.44" y="-180.38" font-family="Times New Roman,serif" font-size="14.00">(3, 1)</text>
<text text-anchor="middle" x="498.44" y="-164.63" font-family="Times New Roman,serif" font-size="14.00">bary &#45;996.0</text>
</g>
<!-- 0_1&#45;&#45;1_vnode_0_1_3_4 -->
<g id="edge5" class="edge">
<title>0_1&#45;&#45;1_vnode_0_1_3_4</title>
<path fill="none" stroke="black" d="M233.14,-45.28C309.65,-83.53 486.9,-172.16 497.9,-177.66"/>
</g>
<!-- 2_vnode_0_1_3_4 -->
<g id="node13" class="node">
<title>2_vnode_0_1_3_4</title>
<ellipse fill="none" stroke="black" cx="648.44" cy="-327.93" rx="0.36" ry="0.72"/>
<text text-anchor="middle" x="648.44" y="-330.38" font-family="Times New Roman,serif" font-size="14.00">(4, 2)</text>
<text text-anchor="middle" x="648.44" y="-314.63" font-family="Times New Roman,serif" font-size="14.00">bary 1003.0</text>
</g>
<!-- 1_vnode_0_1_3_4&#45;&#45;2_vnode_0_1_3_4 -->
<g id="edge14" class="edge">
<title>1_vnode_0_1_3_4&#45;&#45;2_vnode_0_1_3_4</title>
<path fill="none" stroke="black" d="M499.11,-178.6C509.59,-189.08 639.9,-319.4 648.04,-327.53"/>
</g>
<!-- 0_2 -->
<g id="node8" class="node">
<title>0_2</title>
<ellipse fill="none" stroke="black" cx="348.44" cy="-27.93" rx="48.44" ry="27.93"/>
<text text-anchor="middle" x="348.44" y="-30.38" font-family="Times New Roman,serif" font-size="14.00">(2, 0)</text>
<text text-anchor="middle" x="348.44" y="-14.63" font-family="Times New Roman,serif" font-size="14.00">bary 4.25</text>
</g>
<!-- 0_2&#45;&#45;1_0 -->
<g id="edge8" class="edge">
<title>0_2&#45;&#45;1_0</title>
<path fill="none" stroke="black" d="M385.52,-46.47C444,-75.71 556.81,-132.12 613.75,-160.59"/>
</g>
<!-- 0_2&#45;&#45;1_1 -->
<g id="edge9" class="edge">
<title>0_2&#45;&#45;1_1</title>
<path fill="none" stroke="black" d="M390.77,-42.04C477.74,-71.03 675.39,-136.91 759.44,-164.93"/>
</g>
<!-- 1_vnode_0_2_2_1 -->
<g id="node9" class="node">
<title>1_vnode_0_2_2_1</title>
<ellipse fill="none" stroke="black" cx="348.44" cy="-177.93" rx="0.36" ry="0.72"/>
<text text-anchor="middle" x="348.44" y="-180.38" font-family="Times New Roman,serif" font-size="14.00">(2, 1)</text>
<text text-anchor="middle" x="348.44" y="-164.63" font-family="Times New Roman,serif" font-size="14.00">bary &#45;998.0</text>
</g>
<!-- 0_2&#45;&#45;1_vnode_0_2_2_1 -->
<g id="edge7" class="edge">
<title>0_2&#45;&#45;1_vnode_0_2_2_1</title>
<path fill="none" stroke="black" d="M348.44,-56.14C348.44,-96.54 348.44,-167.09 348.44,-176.81"/>
</g>
<!-- 1_vnode_0_2_3_4 -->
<g id="node10" class="node">
<title>1_vnode_0_2_3_4</title>
<ellipse fill="none" stroke="black" cx="948.44" cy="-177.93" rx="0.36" ry="0.72"/>
<text text-anchor="middle" x="948.44" y="-180.38" font-family="Times New Roman,serif" font-size="14.00">(6, 1)</text>
<text text-anchor="middle" x="948.44" y="-164.63" font-family="Times New Roman,serif" font-size="14.00">bary 1005.0</text>
</g>
<!-- 0_2&#45;&#45;1_vnode_0_2_3_4 -->
<g id="edge10" class="edge">
<title>0_2&#45;&#45;1_vnode_0_2_3_4</title>
<path fill="none" stroke="black" d="M393.04,-39.08C528.84,-73.03 929.07,-173.09 947.76,-177.76"/>
</g>
<!-- 1_vnode_0_2_2_1&#45;&#45;2_1 -->
<g id="edge13" class="edge">
<title>1_vnode_0_2_2_1&#45;&#45;2_1</title>
<path fill="none" stroke="black" d="M348.44,-178.89C348.44,-187.95 348.44,-259.08 348.44,-299.71"/>
</g>
<!-- 2_vnode_0_2_3_4 -->
<g id="node17" class="node">
<title>2_vnode_0_2_3_4</title>
<ellipse fill="none" stroke="black" cx="798.44" cy="-327.93" rx="0.36" ry="0.72"/>
<text text-anchor="middle" x="798.44" y="-330.38" font-family="Times New Roman,serif" font-size="14.00">(5, 2)</text>
<text text-anchor="middle" x="798.44" y="-314.63" font-family="Times New Roman,serif" font-size="14.00">bary 1003.0</text>
</g>
<!-- 1_vnode_0_2_3_4&#45;&#45;2_vnode_0_2_3_4 -->
<g id="edge20" class="edge">
<title>1_vnode_0_2_3_4&#45;&#45;2_vnode_0_2_3_4</title>
<path fill="none" stroke="black" d="M947.77,-178.6C937.29,-189.08 806.97,-319.4 798.83,-327.53"/>
</g>
<!-- 3_3 -->
<g id="node18" class="node">
<title>3_3</title>
<ellipse fill="none" stroke="black" cx="48.44" cy="-477.93" rx="48.44" ry="27.93"/>
<text text-anchor="middle" x="48.44" y="-480.38" font-family="Times New Roman,serif" font-size="14.00">(0, 3)</text>
<text text-anchor="middle" x="48.44" y="-464.63" font-family="Times New Roman,serif" font-size="14.00">bary 2.25</text>
</g>
<!-- 2_vnode_0_0_3_3&#45;&#45;3_3 -->
<g id="edge21" class="edge">
<title>2_vnode_0_0_3_3&#45;&#45;3_3</title>
<path fill="none" stroke="black" d="M48.44,-328.89C48.44,-337.95 48.44,-409.08 48.44,-449.71"/>
</g>
<!-- 2_1&#45;&#45;3_3 -->
<g id="edge23" class="edge">
<title>2_1&#45;&#45;3_3</title>
<path fill="none" stroke="black" d="M313.73,-345.28C256.66,-373.82 143.53,-430.38 85.17,-459.57"/>
</g>
<!-- 3_2 -->
<g id="node19" class="node">
<title>3_2</title>
<ellipse fill="none" stroke="black" cx="198.44" cy="-477.93" rx="43.66" ry="27.93"/>
<text text-anchor="middle" x="198.44" y="-480.38" font-family="Times New Roman,serif" font-size="14.00">(1, 3)</text>
<text text-anchor="middle" x="198.44" y="-464.63" font-family="Times New Roman,serif" font-size="14.00">bary 3.0</text>
</g>
<!-- 2_1&#45;&#45;3_2 -->
<g id="edge24" class="edge">
<title>2_1&#45;&#45;3_2</title>
<path fill="none" stroke="black" d="M324.67,-351.7C296.58,-379.79 250.13,-426.24 222.09,-454.27"/>
</g>
<!-- 3_1 -->
<g id="node20" class="node">
<title>3_1</title>
<ellipse fill="none" stroke="black" cx="348.44" cy="-477.93" rx="43.66" ry="27.93"/>
<text text-anchor="middle" x="348.44" y="-480.38" font-family="Times New Roman,serif" font-size="14.00">(2, 3)</text>
<text text-anchor="middle" x="348.44" y="-464.63" font-family="Times New Roman,serif" font-size="14.00">bary 3.5</text>
</g>
<!-- 2_1&#45;&#45;3_1 -->
<g id="edge25" class="edge">
<title>2_1&#45;&#45;3_1</title>
<path fill="none" stroke="black" d="M348.44,-356.14C348.44,-382.88 348.44,-422.81 348.44,-449.59"/>
</g>
<!-- 3_4 -->
<g id="node21" class="node">
<title>3_4</title>
<ellipse fill="none" stroke="black" cx="498.44" cy="-477.93" rx="43.66" ry="27.93"/>
<text text-anchor="middle" x="498.44" y="-480.38" font-family="Times New Roman,serif" font-size="14.00">(3, 3)</text>
<text text-anchor="middle" x="498.44" y="-464.63" font-family="Times New Roman,serif" font-size="14.00">bary 3.5</text>
</g>
<!-- 2_1&#45;&#45;3_4 -->
<g id="edge26" class="edge">
<title>2_1&#45;&#45;3_4</title>
<path fill="none" stroke="black" d="M372.2,-351.7C400.29,-379.79 446.74,-426.24 474.78,-454.27"/>
</g>
<!-- 2_vnode_0_1_3_4&#45;&#45;3_4 -->
<g id="edge31" class="edge">
<title>2_vnode_0_1_3_4&#45;&#45;3_4</title>
<path fill="none" stroke="black" d="M647.77,-328.6C639.78,-336.59 562.19,-414.18 522.13,-454.24"/>
</g>
<!-- 2_vnode_1_0_3_3&#45;&#45;3_3 -->
<g id="edge22" class="edge">
<title>2_vnode_1_0_3_3&#45;&#45;3_3</title>
<path fill="none" stroke="black" d="M197.77,-328.6C189.82,-336.55 113.01,-413.36 72.77,-453.6"/>
</g>
<!-- 2_0&#45;&#45;3_3 -->
<g id="edge27" class="edge">
<title>2_0&#45;&#45;3_3</title>
<path fill="none" stroke="black" d="M456.1,-342.04C370.23,-370.67 176.44,-435.26 90.66,-463.86"/>
</g>
<!-- 2_0&#45;&#45;3_1 -->
<g id="edge28" class="edge">
<title>2_0&#45;&#45;3_1</title>
<path fill="none" stroke="black" d="M474,-352.36C445.78,-380.59 399.67,-426.7 371.87,-454.5"/>
</g>
<!-- 2_0&#45;&#45;3_4 -->
<g id="edge29" class="edge">
<title>2_0&#45;&#45;3_4</title>
<path fill="none" stroke="black" d="M498.44,-356.14C498.44,-382.88 498.44,-422.81 498.44,-449.59"/>
</g>
<!-- 3_0 -->
<g id="node22" class="node">
<title>3_0</title>
<ellipse fill="none" stroke="black" cx="648.44" cy="-477.93" rx="43.66" ry="27.93"/>
<text text-anchor="middle" x="648.44" y="-480.38" font-family="Times New Roman,serif" font-size="14.00">(4, 3)</text>
<text text-anchor="middle" x="648.44" y="-464.63" font-family="Times New Roman,serif" font-size="14.00">bary 4.5</text>
</g>
<!-- 2_0&#45;&#45;3_0 -->
<g id="edge30" class="edge">
<title>2_0&#45;&#45;3_0</title>
<path fill="none" stroke="black" d="M522.87,-352.36C551.1,-380.59 597.21,-426.7 625,-454.5"/>
</g>
<!-- 2_vnode_1_1_3_0&#45;&#45;3_0 -->
<g id="edge33" class="edge">
<title>2_vnode_1_1_3_0&#45;&#45;3_0</title>
<path fill="none" stroke="black" d="M947.95,-328.17C937.45,-333.43 759.67,-422.31 683.08,-460.61"/>
</g>
<!-- 2_vnode_0_2_3_4&#45;&#45;3_4 -->
<g id="edge32" class="edge">
<title>2_vnode_0_2_3_4&#45;&#45;3_4</title>
<path fill="none" stroke="black" d="M797.95,-328.17C787.45,-333.43 609.67,-422.31 533.08,-460.61"/>
</g>
</g>
</svg>
