<?xml version="1.0" encoding="UTF-8" standalone="no"?>
<!DOCTYPE svg PUBLIC "-//W3C//DTD SVG 1.1//EN"
 "http://www.w3.org/Graphics/SVG/1.1/DTD/svg11.dtd">
<!-- Generated by graphviz version 8.0.5 (20230430.1635)
 -->
<!-- Pages: 1 -->
<svg width="957pt" height="514pt"
 viewBox="0.00 0.00 956.80 513.86" xmlns="http://www.w3.org/2000/svg" xmlns:xlink="http://www.w3.org/1999/xlink">
<g id="graph0" class="graph" transform="scale(1 1) rotate(0) translate(4 509.86)">
<polygon fill="white" stroke="none" points="-4,4 -4,-509.86 952.8,-509.86 952.8,4 -4,4"/>
<!-- 0_0 -->
<g id="node1" class="node">
<title>0_0</title>
<ellipse fill="none" stroke="black" cx="48.44" cy="-27.93" rx="48.44" ry="27.93"/>
<text text-anchor="middle" x="48.44" y="-30.38" font-family="Times New Roman,serif" font-size="14.00">(0, 0)</text>
<text text-anchor="middle" x="48.44" y="-14.63" font-family="Times New Roman,serif" font-size="14.00">bary 1.75</text>
</g>
<!-- 1_vnode_0_0_2_1 -->
<g id="node2" class="node">
<title>1_vnode_0_0_2_1</title>
<ellipse fill="none" stroke="black" cx="48.44" cy="-177.93" rx="0.36" ry="0.72"/>
<text text-anchor="middle" x="48.44" y="-180.38" font-family="Times New Roman,serif" font-size="14.00">(0, 1)</text>
<text text-anchor="middle" x="48.44" y="-164.63" font-family="Times New Roman,serif" font-size="14.00">bary &#45;998.0</text>
</g>
<!-- 0_0&#45;&#45;1_vnode_0_0_2_1 -->
<g id="edge1" class="edge">
<title>0_0&#45;&#45;1_vnode_0_0_2_1</title>
<path fill="none" stroke="black" d="M48.44,-56.14C48.44,-96.54 48.44,-167.09 48.44,-176.81"/>
</g>
<!-- 1_1 -->
<g id="node3" class="node">
<title>1_1</title>
<ellipse fill="none" stroke="black" cx="198.44" cy="-177.93" rx="43.66" ry="27.93"/>
<text text-anchor="middle" x="198.44" y="-180.38" font-family="Times New Roman,serif" font-size="14.00">(1, 1)</text>
<text text-anchor="middle" x="198.44" y="-164.63" font-family="Times New Roman,serif" font-size="14.00">bary 0.5</text>
</g>
<!-- 0_0&#45;&#45;1_1 -->
<g id="edge2" class="edge">
<title>0_0&#45;&#45;1_1</title>
<path fill="none" stroke="black" d="M72.87,-52.36C101.1,-80.59 147.21,-126.7 175,-154.5"/>
</g>
<!-- 1_0 -->
<g id="node4" class="node">
<title>1_0</title>
<ellipse fill="none" stroke="black" cx="348.44" cy="-177.93" rx="43.66" ry="27.93"/>
<text text-anchor="middle" x="348.44" y="-180.38" font-family="Times New Roman,serif" font-size="14.00">(2, 1)</text>
<text text-anchor="middle" x="348.44" y="-164.63" font-family="Times New Roman,serif" font-size="14.00">bary 2.0</text>
</g>
<!-- 0_0&#45;&#45;1_0 -->
<g id="edge3" class="edge">
<title>0_0&#45;&#45;1_0</title>
<path fill="none" stroke="black" d="M85.52,-46.47C144,-75.71 256.81,-132.12 313.75,-160.59"/>
</g>
<!-- 1_vnode_0_0_3_3 -->
<g id="node5" class="node">
<title>1_vnode_0_0_3_3</title>
<ellipse fill="none" stroke="black" cx="648.44" cy="-177.93" rx="0.36" ry="0.72"/>
<text text-anchor="middle" x="648.44" y="-180.38" font-family="Times New Roman,serif" font-size="14.00">(4, 1)</text>
<text text-anchor="middle" x="648.44" y="-164.63" font-family="Times New Roman,serif" font-size="14.00">bary 1004.0</text>
</g>
<!-- 0_0&#45;&#45;1_vnode_0_0_3_3 -->
<g id="edge4" class="edge">
<title>0_0&#45;&#45;1_vnode_0_0_3_3</title>
<path fill="none" stroke="black" d="M93.04,-39.08C228.84,-73.03 629.07,-173.09 647.76,-177.76"/>
</g>
<!-- 2_1 -->
<g id="node11" class="node">
<title>2_1</title>
<ellipse fill="none" stroke="black" cx="348.44" cy="-327.93" rx="43.66" ry="27.93"/>
<text text-anchor="middle" x="348.44" y="-330.38" font-family="Times New Roman,serif" font-size="14.00">(2, 2)</text>
<text text-anchor="middle" x="348.44" y="-314.63" font-family="Times New Roman,serif" font-size="14.00">bary 2.5</text>
</g>
<!-- 1_vnode_0_0_2_1&#45;&#45;2_1 -->
<g id="edge11" class="edge">
<title>1_vnode_0_0_2_1&#45;&#45;2_1</title>
<path fill="none" stroke="black" d="M48.92,-178.17C59.43,-183.43 237.2,-272.31 313.79,-310.61"/>
</g>
<!-- 2_vnode_1_1_3_0 -->
<g id="node12" class="node">
<title>2_vnode_1_1_3_0</title>
<ellipse fill="none" stroke="black" cx="48.44" cy="-327.93" rx="0.36" ry="0.72"/>
<text text-anchor="middle" x="48.44" y="-330.38" font-family="Times New Roman,serif" font-size="14.00">(0, 2)</text>
<text text-anchor="middle" x="48.44" y="-314.63" font-family="Times New Roman,serif" font-size="14.00">bary &#45;1000.0</text>
</g>
<!-- 1_1&#45;&#45;2_vnode_1_1_3_0 -->
<g id="edge12" class="edge">
<title>1_1&#45;&#45;2_vnode_1_1_3_0</title>
<path fill="none" stroke="black" d="M174.67,-201.7C134.36,-242.01 56.21,-320.15 48.98,-327.39"/>
</g>
<!-- 2_0 -->
<g id="node13" class="node">
<title>2_0</title>
<ellipse fill="none" stroke="black" cx="198.44" cy="-327.93" rx="43.66" ry="27.93"/>
<text text-anchor="middle" x="198.44" y="-330.38" font-family="Times New Roman,serif" font-size="14.00">(1, 2)</text>
<text text-anchor="middle" x="198.44" y="-314.63" font-family="Times New Roman,serif" font-size="14.00">bary 2.0</text>
</g>
<!-- 1_1&#45;&#45;2_0 -->
<g id="edge13" class="edge">
<title>1_1&#45;&#45;2_0</title>
<path fill="none" stroke="black" d="M198.44,-206.14C198.44,-232.88 198.44,-272.81 198.44,-299.59"/>
</g>
<!-- 1_0&#45;&#45;2_1 -->
<g id="edge15" class="edge">
<title>1_0&#45;&#45;2_1</title>
<path fill="none" stroke="black" d="M348.44,-206.14C348.44,-232.88 348.44,-272.81 348.44,-299.59"/>
</g>
<!-- 1_0&#45;&#45;2_0 -->
<g id="edge14" class="edge">
<title>1_0&#45;&#45;2_0</title>
<path fill="none" stroke="black" d="M324.67,-201.7C296.58,-229.79 250.13,-276.24 222.09,-304.27"/>
</g>
<!-- 2_vnode_1_0_3_3 -->
<g id="node14" class="node">
<title>2_vnode_1_0_3_3</title>
<ellipse fill="none" stroke="black" cx="498.44" cy="-327.93" rx="0.36" ry="0.72"/>
<text text-anchor="middle" x="498.44" y="-330.38" font-family="Times New Roman,serif" font-size="14.00">(3, 2)</text>
<text text-anchor="middle" x="498.44" y="-314.63" font-family="Times New Roman,serif" font-size="14.00">bary 1003.0</text>
</g>
<!-- 1_0&#45;&#45;2_vnode_1_0_3_3 -->
<g id="edge16" class="edge">
<title>1_0&#45;&#45;2_vnode_1_0_3_3</title>
<path fill="none" stroke="black" d="M372.2,-201.7C412.52,-242.01 490.66,-320.15 497.9,-327.39"/>
</g>
<!-- 2_vnode_0_0_3_3 -->
<g id="node15" class="node">
<title>2_vnode_0_0_3_3</title>
<ellipse fill="none" stroke="black" cx="648.44" cy="-327.93" rx="0.36" ry="0.72"/>
<text text-anchor="middle" x="648.44" y="-330.38" font-family="Times New Roman,serif" font-size="14.00">(4, 2)</text>
<text text-anchor="middle" x="648.44" y="-314.63" font-family="Times New Roman,serif" font-size="14.00">bary 1003.0</text>
</g>
<!-- 1_vnode_0_0_3_3&#45;&#45;2_vnode_0_0_3_3 -->
<g id="edge18" class="edge">
<title>1_vnode_0_0_3_3&#45;&#45;2_vnode_0_0_3_3</title>
<path fill="none" stroke="black" d="M648.44,-178.89C648.44,-191.06 648.44,-315.43 648.44,-327.06"/>
</g>
<!-- 0_2 -->
<g id="node6" class="node">
<title>0_2</title>
<ellipse fill="none" stroke="black" cx="198.44" cy="-27.93" rx="48.44" ry="27.93"/>
<text text-anchor="middle" x="198.44" y="-30.38" font-family="Times New Roman,serif" font-size="14.00">(1, 0)</text>
<text text-anchor="middle" x="198.44" y="-14.63" font-family="Times New Roman,serif" font-size="14.00">bary 2.75</text>
</g>
<!-- 0_2&#45;&#45;1_1 -->
<g id="edge5" class="edge">
<title>0_2&#45;&#45;1_1</title>
<path fill="none" stroke="black" d="M198.44,-56.14C198.44,-82.88 198.44,-122.81 198.44,-149.59"/>
</g>
<!-- 0_2&#45;&#45;1_0 -->
<g id="edge6" class="edge">
<title>0_2&#45;&#45;1_0</title>
<path fill="none" stroke="black" d="M222.87,-52.36C251.1,-80.59 297.21,-126.7 325,-154.5"/>
</g>
<!-- 1_vnode_0_2_2_1 -->
<g id="node7" class="node">
<title>1_vnode_0_2_2_1</title>
<ellipse fill="none" stroke="black" cx="498.44" cy="-177.93" rx="0.36" ry="0.72"/>
<text text-anchor="middle" x="498.44" y="-180.38" font-family="Times New Roman,serif" font-size="14.00">(3, 1)</text>
<text text-anchor="middle" x="498.44" y="-164.63" font-family="Times New Roman,serif" font-size="14.00">bary 1002.0</text>
</g>
<!-- 0_2&#45;&#45;1_vnode_0_2_2_1 -->
<g id="edge7" class="edge">
<title>0_2&#45;&#45;1_vnode_0_2_2_1</title>
<path fill="none" stroke="black" d="M235.52,-46.47C313.28,-85.35 487.12,-172.27 497.91,-177.67"/>
</g>
<!-- 1_vnode_0_2_3_4 -->
<g id="node8" class="node">
<title>1_vnode_0_2_3_4</title>
<ellipse fill="none" stroke="black" cx="798.44" cy="-177.93" rx="0.36" ry="0.72"/>
<text text-anchor="middle" x="798.44" y="-180.38" font-family="Times New Roman,serif" font-size="14.00">(5, 1)</text>
<text text-anchor="middle" x="798.44" y="-164.63" font-family="Times New Roman,serif" font-size="14.00">bary 1005.0</text>
</g>
<!-- 0_2&#45;&#45;1_vnode_0_2_3_4 -->
<g id="edge8" class="edge">
<title>0_2&#45;&#45;1_vnode_0_2_3_4</title>
<path fill="none" stroke="black" d="M243.04,-39.08C378.84,-73.03 779.07,-173.09 797.76,-177.76"/>
</g>
<!-- 1_vnode_0_2_2_1&#45;&#45;2_1 -->
<g id="edge17" class="edge">
<title>1_vnode_0_2_2_1&#45;&#45;2_1</title>
<path fill="none" stroke="black" d="M497.77,-178.6C489.78,-186.59 412.19,-264.18 372.13,-304.24"/>
</g>
<!-- 2_vnode_0_2_3_4 -->
<g id="node16" class="node">
<title>2_vnode_0_2_3_4</title>
<ellipse fill="none" stroke="black" cx="798.44" cy="-327.93" rx="0.36" ry="0.72"/>
<text text-anchor="middle" x="798.44" y="-330.38" font-family="Times New Roman,serif" font-size="14.00">(5, 2)</text>
<text text-anchor="middle" x="798.44" y="-314.63" font-family="Times New Roman,serif" font-size="14.00">bary 1004.0</text>
</g>
<!-- 1_vnode_0_2_3_4&#45;&#45;2_vnode_0_2_3_4 -->
<g id="edge19" class="edge">
<title>1_vnode_0_2_3_4&#45;&#45;2_vnode_0_2_3_4</title>
<path fill="none" stroke="black" d="M798.44,-178.89C798.44,-191.06 798.44,-315.43 798.44,-327.06"/>
</g>
<!-- 0_1 -->
<g id="node9" class="node">
<title>0_1</title>
<ellipse fill="none" stroke="black" cx="348.44" cy="-27.93" rx="43.66" ry="27.93"/>
<text text-anchor="middle" x="348.44" y="-30.38" font-family="Times New Roman,serif" font-size="14.00">(2, 0)</text>
<text text-anchor="middle" x="348.44" y="-14.63" font-family="Times New Roman,serif" font-size="14.00">bary 4.0</text>
</g>
<!-- 0_1&#45;&#45;1_0 -->
<g id="edge9" class="edge">
<title>0_1&#45;&#45;1_0</title>
<path fill="none" stroke="black" d="M348.44,-56.14C348.44,-82.88 348.44,-122.81 348.44,-149.59"/>
</g>
<!-- 1_vnode_0_1_3_4 -->
<g id="node10" class="node">
<title>1_vnode_0_1_3_4</title>
<ellipse fill="none" stroke="black" cx="948.44" cy="-177.93" rx="0.36" ry="0.72"/>
<text text-anchor="middle" x="948.44" y="-180.38" font-family="Times New Roman,serif" font-size="14.00">(6, 1)</text>
<text text-anchor="middle" x="948.44" y="-164.63" font-family="Times New Roman,serif" font-size="14.00">bary 1006.0</text>
</g>
<!-- 0_1&#45;&#45;1_vnode_0_1_3_4 -->
<g id="edge10" class="edge">
<title>0_1&#45;&#45;1_vnode_0_1_3_4</title>
<path fill="none" stroke="black" d="M389.21,-38.12C521.08,-71.09 928.71,-173 947.75,-177.76"/>
</g>
<!-- 2_vnode_0_1_3_4 -->
<g id="node17" class="node">
<title>2_vnode_0_1_3_4</title>
<ellipse fill="none" stroke="black" cx="948.44" cy="-327.93" rx="0.36" ry="0.72"/>
<text text-anchor="middle" x="948.44" y="-330.38" font-family="Times New Roman,serif" font-size="14.00">(6, 2)</text>
<text text-anchor="middle" x="948.44" y="-314.63" font-family="Times New Roman,serif" font-size="14.00">bary 1004.0</text>
</g>
<!-- 1_vnode_0_1_3_4&#45;&#45;2_vnode_0_1_3_4 -->
<g id="edge20" class="edge">
<title>1_vnode_0_1_3_4&#45;&#45;2_vnode_0_1_3_4</title>
<path fill="none" stroke="black" d="M948.44,-178.89C948.44,-191.06 948.44,-315.43 948.44,-327.06"/>
</g>
<!-- 3_1 -->
<g id="node19" class="node">
<title>3_1</title>
<ellipse fill="none" stroke="black" cx="198.44" cy="-477.93" rx="43.66" ry="27.93"/>
<text text-anchor="middle" x="198.44" y="-480.38" font-family="Times New Roman,serif" font-size="14.00">(1, 3)</text>
<text text-anchor="middle" x="198.44" y="-464.63" font-family="Times New Roman,serif" font-size="14.00">bary 1.5</text>
</g>
<!-- 2_1&#45;&#45;3_1 -->
<g id="edge26" class="edge">
<title>2_1&#45;&#45;3_1</title>
<path fill="none" stroke="black" d="M324.67,-351.7C296.58,-379.79 250.13,-426.24 222.09,-454.27"/>
</g>
<!-- 3_3 -->
<g id="node20" class="node">
<title>3_3</title>
<ellipse fill="none" stroke="black" cx="498.44" cy="-477.93" rx="43.66" ry="27.93"/>
<text text-anchor="middle" x="498.44" y="-480.38" font-family="Times New Roman,serif" font-size="14.00">(3, 3)</text>
<text text-anchor="middle" x="498.44" y="-464.63" font-family="Times New Roman,serif" font-size="14.00">bary 2.5</text>
</g>
<!-- 2_1&#45;&#45;3_3 -->
<g id="edge28" class="edge">
<title>2_1&#45;&#45;3_3</title>
<path fill="none" stroke="black" d="M372.2,-351.7C400.29,-379.79 446.74,-426.24 474.78,-454.27"/>
</g>
<!-- 3_4 -->
<g id="node21" class="node">
<title>3_4</title>
<ellipse fill="none" stroke="black" cx="648.44" cy="-477.93" rx="43.66" ry="27.93"/>
<text text-anchor="middle" x="648.44" y="-480.38" font-family="Times New Roman,serif" font-size="14.00">(4, 3)</text>
<text text-anchor="middle" x="648.44" y="-464.63" font-family="Times New Roman,serif" font-size="14.00">bary 3.5</text>
</g>
<!-- 2_1&#45;&#45;3_4 -->
<g id="edge29" class="edge">
<title>2_1&#45;&#45;3_4</title>
<path fill="none" stroke="black" d="M383.14,-345.28C440.83,-374.13 555.8,-431.61 613.58,-460.5"/>
</g>
<!-- 3_2 -->
<g id="node22" class="node">
<title>3_2</title>
<ellipse fill="none" stroke="black" cx="348.44" cy="-477.93" rx="43.66" ry="27.93"/>
<text text-anchor="middle" x="348.44" y="-480.38" font-family="Times New Roman,serif" font-size="14.00">(2, 3)</text>
<text text-anchor="middle" x="348.44" y="-464.63" font-family="Times New Roman,serif" font-size="14.00">bary 2.0</text>
</g>
<!-- 2_1&#45;&#45;3_2 -->
<g id="edge27" class="edge">
<title>2_1&#45;&#45;3_2</title>
<path fill="none" stroke="black" d="M348.44,-356.14C348.44,-382.88 348.44,-422.81 348.44,-449.59"/>
</g>
<!-- 3_0 -->
<g id="node18" class="node">
<title>3_0</title>
<ellipse fill="none" stroke="black" cx="48.44" cy="-477.93" rx="43.66" ry="27.93"/>
<text text-anchor="middle" x="48.44" y="-480.38" font-family="Times New Roman,serif" font-size="14.00">(0, 3)</text>
<text text-anchor="middle" x="48.44" y="-464.63" font-family="Times New Roman,serif" font-size="14.00">bary 0.5</text>
</g>
<!-- 2_vnode_1_1_3_0&#45;&#45;3_0 -->
<g id="edge21" class="edge">
<title>2_vnode_1_1_3_0&#45;&#45;3_0</title>
<path fill="none" stroke="black" d="M48.44,-328.89C48.44,-337.95 48.44,-409.08 48.44,-449.71"/>
</g>
<!-- 2_0&#45;&#45;3_0 -->
<g id="edge22" class="edge">
<title>2_0&#45;&#45;3_0</title>
<path fill="none" stroke="black" d="M174.67,-351.7C146.58,-379.79 100.13,-426.24 72.09,-454.27"/>
</g>
<!-- 2_0&#45;&#45;3_1 -->
<g id="edge23" class="edge">
<title>2_0&#45;&#45;3_1</title>
<path fill="none" stroke="black" d="M198.44,-356.14C198.44,-382.88 198.44,-422.81 198.44,-449.59"/>
</g>
<!-- 2_0&#45;&#45;3_3 -->
<g id="edge24" class="edge">
<title>2_0&#45;&#45;3_3</title>
<path fill="none" stroke="black" d="M233.14,-345.28C290.83,-374.13 405.8,-431.61 463.58,-460.5"/>
</g>
<!-- 2_0&#45;&#45;3_4 -->
<g id="edge25" class="edge">
<title>2_0&#45;&#45;3_4</title>
<path fill="none" stroke="black" d="M237.58,-340.98C322.8,-369.38 524.25,-436.54 609.38,-464.91"/>
</g>
<!-- 2_vnode_1_0_3_3&#45;&#45;3_3 -->
<g id="edge30" class="edge">
<title>2_vnode_1_0_3_3&#45;&#45;3_3</title>
<path fill="none" stroke="black" d="M498.44,-328.89C498.44,-337.95 498.44,-409.08 498.44,-449.71"/>
</g>
<!-- 2_vnode_0_0_3_3&#45;&#45;3_3 -->
<g id="edge31" class="edge">
<title>2_vnode_0_0_3_3&#45;&#45;3_3</title>
<path fill="none" stroke="black" d="M647.77,-328.6C639.78,-336.59 562.19,-414.18 522.13,-454.24"/>
</g>
<!-- 2_vnode_0_2_3_4&#45;&#45;3_4 -->
<g id="edge32" class="edge">
<title>2_vnode_0_2_3_4&#45;&#45;3_4</title>
<path fill="none" stroke="black" d="M797.77,-328.6C789.78,-336.59 712.19,-414.18 672.13,-454.24"/>
</g>
<!-- 2_vnode_0_1_3_4&#45;&#45;3_4 -->
<g id="edge33" class="edge">
<title>2_vnode_0_1_3_4&#45;&#45;3_4</title>
<path fill="none" stroke="black" d="M947.95,-328.17C937.45,-333.43 759.67,-422.31 683.08,-460.61"/>
</g>
</g>
</svg>
