<?xml version="1.0" encoding="UTF-8" standalone="no"?>
<!DOCTYPE svg PUBLIC "-//W3C//DTD SVG 1.1//EN"
 "http://www.w3.org/Graphics/SVG/1.1/DTD/svg11.dtd">
<!-- Generated by graphviz version 8.0.5 (20230430.1635)
 -->
<!-- Pages: 1 -->
<svg width="957pt" height="504pt"
 viewBox="0.00 0.00 956.80 503.93" xmlns="http://www.w3.org/2000/svg" xmlns:xlink="http://www.w3.org/1999/xlink">
<g id="graph0" class="graph" transform="scale(1 1) rotate(0) translate(4 499.93)">
<polygon fill="white" stroke="none" points="-4,4 -4,-499.93 952.8,-499.93 952.8,4 -4,4"/>
<!-- 0_0 -->
<g id="node1" class="node">
<title>0_0</title>
<ellipse fill="none" stroke="black" cx="48.44" cy="-18" rx="30.61" ry="18"/>
<text text-anchor="middle" x="48.44" y="-12.57" font-family="Times New Roman,serif" font-size="14.00">(0, 0)</text>
</g>
<!-- 1_vnode_0_0_2_1 -->
<g id="node2" class="node">
<title>1_vnode_0_0_2_1</title>
<ellipse fill="none" stroke="black" cx="48.44" cy="-168" rx="0.36" ry="0.72"/>
<text text-anchor="middle" x="48.44" y="-170.45" font-family="Times New Roman,serif" font-size="14.00">(0, 1)</text>
<text text-anchor="middle" x="48.44" y="-154.7" font-family="Times New Roman,serif" font-size="14.00">bary &#45;1000.0</text>
</g>
<!-- 0_0&#45;&#45;1_vnode_0_0_2_1 -->
<g id="edge1" class="edge">
<title>0_0&#45;&#45;1_vnode_0_0_2_1</title>
<path fill="none" stroke="black" d="M48.44,-36.39C48.44,-73.94 48.44,-156.76 48.44,-166.96"/>
</g>
<!-- 1_vnode_0_0_3_3 -->
<g id="node3" class="node">
<title>1_vnode_0_0_3_3</title>
<ellipse fill="none" stroke="black" cx="198.44" cy="-168" rx="0.36" ry="0.72"/>
<text text-anchor="middle" x="198.44" y="-170.45" font-family="Times New Roman,serif" font-size="14.00">(1, 1)</text>
<text text-anchor="middle" x="198.44" y="-154.7" font-family="Times New Roman,serif" font-size="14.00">bary &#45;1000.0</text>
</g>
<!-- 0_0&#45;&#45;1_vnode_0_0_3_3 -->
<g id="edge2" class="edge">
<title>0_0&#45;&#45;1_vnode_0_0_3_3</title>
<path fill="none" stroke="black" d="M64.21,-33.77C100.91,-70.48 189.59,-159.15 197.82,-167.38"/>
</g>
<!-- 1_0 -->
<g id="node4" class="node">
<title>1_0</title>
<ellipse fill="none" stroke="black" cx="498.44" cy="-168" rx="43.66" ry="27.93"/>
<text text-anchor="middle" x="498.44" y="-170.45" font-family="Times New Roman,serif" font-size="14.00">(3, 1)</text>
<text text-anchor="middle" x="498.44" y="-154.7" font-family="Times New Roman,serif" font-size="14.00">bary 1.0</text>
</g>
<!-- 0_0&#45;&#45;1_0 -->
<g id="edge3" class="edge">
<title>0_0&#45;&#45;1_0</title>
<path fill="none" stroke="black" d="M75.24,-26.93C151.49,-52.35 369.89,-125.15 459.43,-155"/>
</g>
<!-- 1_1 -->
<g id="node5" class="node">
<title>1_1</title>
<ellipse fill="none" stroke="black" cx="648.44" cy="-168" rx="43.66" ry="27.93"/>
<text text-anchor="middle" x="648.44" y="-170.45" font-family="Times New Roman,serif" font-size="14.00">(4, 1)</text>
<text text-anchor="middle" x="648.44" y="-154.7" font-family="Times New Roman,serif" font-size="14.00">bary 1.0</text>
</g>
<!-- 0_0&#45;&#45;1_1 -->
<g id="edge4" class="edge">
<title>0_0&#45;&#45;1_1</title>
<path fill="none" stroke="black" d="M76.97,-25.13C174.32,-49.47 493.61,-129.29 607.57,-157.78"/>
</g>
<!-- 2_1 -->
<g id="node11" class="node">
<title>2_1</title>
<ellipse fill="none" stroke="black" cx="498.44" cy="-318" rx="57.98" ry="27.93"/>
<text text-anchor="middle" x="498.44" y="-320.45" font-family="Times New Roman,serif" font-size="14.00">(3, 2)</text>
<text text-anchor="middle" x="498.44" y="-304.7" font-family="Times New Roman,serif" font-size="14.00">bary 2.6667</text>
</g>
<!-- 1_vnode_0_0_2_1&#45;&#45;2_1 -->
<g id="edge11" class="edge">
<title>1_vnode_0_0_2_1&#45;&#45;2_1</title>
<path fill="none" stroke="black" d="M49.17,-168.24C65.1,-173.55 337.6,-264.39 450.28,-301.95"/>
</g>
<!-- 2_vnode_0_0_3_3 -->
<g id="node12" class="node">
<title>2_vnode_0_0_3_3</title>
<ellipse fill="none" stroke="black" cx="48.44" cy="-318" rx="0.36" ry="0.72"/>
<text text-anchor="middle" x="48.44" y="-320.45" font-family="Times New Roman,serif" font-size="14.00">(0, 2)</text>
<text text-anchor="middle" x="48.44" y="-304.7" font-family="Times New Roman,serif" font-size="14.00">bary &#45;999.0</text>
</g>
<!-- 1_vnode_0_0_3_3&#45;&#45;2_vnode_0_0_3_3 -->
<g id="edge12" class="edge">
<title>1_vnode_0_0_3_3&#45;&#45;2_vnode_0_0_3_3</title>
<path fill="none" stroke="black" d="M197.77,-168.67C187.29,-179.15 56.97,-309.47 48.83,-317.6"/>
</g>
<!-- 1_0&#45;&#45;2_1 -->
<g id="edge15" class="edge">
<title>1_0&#45;&#45;2_1</title>
<path fill="none" stroke="black" d="M498.44,-196.21C498.44,-222.95 498.44,-262.88 498.44,-289.66"/>
</g>
<!-- 2_vnode_1_0_3_3 -->
<g id="node14" class="node">
<title>2_vnode_1_0_3_3</title>
<ellipse fill="none" stroke="black" cx="348.44" cy="-318" rx="0.36" ry="0.72"/>
<text text-anchor="middle" x="348.44" y="-320.45" font-family="Times New Roman,serif" font-size="14.00">(2, 2)</text>
<text text-anchor="middle" x="348.44" y="-304.7" font-family="Times New Roman,serif" font-size="14.00">bary &#45;997.0</text>
</g>
<!-- 1_0&#45;&#45;2_vnode_1_0_3_3 -->
<g id="edge14" class="edge">
<title>1_0&#45;&#45;2_vnode_1_0_3_3</title>
<path fill="none" stroke="black" d="M474.67,-191.77C434.36,-232.08 356.21,-310.22 348.98,-317.46"/>
</g>
<!-- 2_0 -->
<g id="node15" class="node">
<title>2_0</title>
<ellipse fill="none" stroke="black" cx="648.44" cy="-318" rx="43.66" ry="27.93"/>
<text text-anchor="middle" x="648.44" y="-320.45" font-family="Times New Roman,serif" font-size="14.00">(4, 2)</text>
<text text-anchor="middle" x="648.44" y="-304.7" font-family="Times New Roman,serif" font-size="14.00">bary 3.5</text>
</g>
<!-- 1_0&#45;&#45;2_0 -->
<g id="edge16" class="edge">
<title>1_0&#45;&#45;2_0</title>
<path fill="none" stroke="black" d="M522.2,-191.77C550.29,-219.86 596.74,-266.3 624.78,-294.34"/>
</g>
<!-- 1_1&#45;&#45;2_0 -->
<g id="edge17" class="edge">
<title>1_1&#45;&#45;2_0</title>
<path fill="none" stroke="black" d="M648.44,-196.21C648.44,-222.95 648.44,-262.88 648.44,-289.66"/>
</g>
<!-- 2_vnode_1_1_3_0 -->
<g id="node16" class="node">
<title>2_vnode_1_1_3_0</title>
<ellipse fill="none" stroke="black" cx="798.44" cy="-318" rx="0.36" ry="0.72"/>
<text text-anchor="middle" x="798.44" y="-320.45" font-family="Times New Roman,serif" font-size="14.00">(5, 2)</text>
<text text-anchor="middle" x="798.44" y="-304.7" font-family="Times New Roman,serif" font-size="14.00">bary 1004.0</text>
</g>
<!-- 1_1&#45;&#45;2_vnode_1_1_3_0 -->
<g id="edge18" class="edge">
<title>1_1&#45;&#45;2_vnode_1_1_3_0</title>
<path fill="none" stroke="black" d="M672.2,-191.77C712.52,-232.08 790.66,-310.22 797.9,-317.46"/>
</g>
<!-- 0_1 -->
<g id="node6" class="node">
<title>0_1</title>
<ellipse fill="none" stroke="black" cx="198.44" cy="-18" rx="30.61" ry="18"/>
<text text-anchor="middle" x="198.44" y="-12.57" font-family="Times New Roman,serif" font-size="14.00">(1, 0)</text>
</g>
<!-- 0_1&#45;&#45;1_0 -->
<g id="edge6" class="edge">
<title>0_1&#45;&#45;1_0</title>
<path fill="none" stroke="black" d="M222.23,-29.9C275.03,-56.3 402.2,-119.88 463.81,-150.69"/>
</g>
<!-- 1_vnode_0_1_3_4 -->
<g id="node7" class="node">
<title>1_vnode_0_1_3_4</title>
<ellipse fill="none" stroke="black" cx="348.44" cy="-168" rx="0.36" ry="0.72"/>
<text text-anchor="middle" x="348.44" y="-170.45" font-family="Times New Roman,serif" font-size="14.00">(2, 1)</text>
<text text-anchor="middle" x="348.44" y="-154.7" font-family="Times New Roman,serif" font-size="14.00">bary &#45;999.0</text>
</g>
<!-- 0_1&#45;&#45;1_vnode_0_1_3_4 -->
<g id="edge5" class="edge">
<title>0_1&#45;&#45;1_vnode_0_1_3_4</title>
<path fill="none" stroke="black" d="M214.21,-33.77C250.91,-70.48 339.59,-159.15 347.82,-167.38"/>
</g>
<!-- 2_vnode_0_1_3_4 -->
<g id="node13" class="node">
<title>2_vnode_0_1_3_4</title>
<ellipse fill="none" stroke="black" cx="198.44" cy="-318" rx="0.36" ry="0.72"/>
<text text-anchor="middle" x="198.44" y="-320.45" font-family="Times New Roman,serif" font-size="14.00">(1, 2)</text>
<text text-anchor="middle" x="198.44" y="-304.7" font-family="Times New Roman,serif" font-size="14.00">bary &#45;998.0</text>
</g>
<!-- 1_vnode_0_1_3_4&#45;&#45;2_vnode_0_1_3_4 -->
<g id="edge13" class="edge">
<title>1_vnode_0_1_3_4&#45;&#45;2_vnode_0_1_3_4</title>
<path fill="none" stroke="black" d="M347.77,-168.67C337.29,-179.15 206.97,-309.47 198.83,-317.6"/>
</g>
<!-- 0_2 -->
<g id="node8" class="node">
<title>0_2</title>
<ellipse fill="none" stroke="black" cx="348.44" cy="-18" rx="30.61" ry="18"/>
<text text-anchor="middle" x="348.44" y="-12.57" font-family="Times New Roman,serif" font-size="14.00">(2, 0)</text>
</g>
<!-- 0_2&#45;&#45;1_0 -->
<g id="edge7" class="edge">
<title>0_2&#45;&#45;1_0</title>
<path fill="none" stroke="black" d="M364.21,-33.77C390.53,-60.1 443.59,-113.16 474.53,-144.1"/>
</g>
<!-- 0_2&#45;&#45;1_1 -->
<g id="edge8" class="edge">
<title>0_2&#45;&#45;1_1</title>
<path fill="none" stroke="black" d="M372.23,-29.9C425.03,-56.3 552.2,-119.88 613.81,-150.69"/>
</g>
<!-- 1_vnode_0_2_2_1 -->
<g id="node9" class="node">
<title>1_vnode_0_2_2_1</title>
<ellipse fill="none" stroke="black" cx="798.44" cy="-168" rx="0.36" ry="0.72"/>
<text text-anchor="middle" x="798.44" y="-170.45" font-family="Times New Roman,serif" font-size="14.00">(5, 1)</text>
<text text-anchor="middle" x="798.44" y="-154.7" font-family="Times New Roman,serif" font-size="14.00">bary 1002.0</text>
</g>
<!-- 0_2&#45;&#45;1_vnode_0_2_2_1 -->
<g id="edge9" class="edge">
<title>0_2&#45;&#45;1_vnode_0_2_2_1</title>
<path fill="none" stroke="black" d="M375.24,-26.93C469.84,-58.47 783.27,-162.94 797.91,-167.82"/>
</g>
<!-- 1_vnode_0_2_3_4 -->
<g id="node10" class="node">
<title>1_vnode_0_2_3_4</title>
<ellipse fill="none" stroke="black" cx="948.44" cy="-168" rx="0.36" ry="0.72"/>
<text text-anchor="middle" x="948.44" y="-170.45" font-family="Times New Roman,serif" font-size="14.00">(6, 1)</text>
<text text-anchor="middle" x="948.44" y="-154.7" font-family="Times New Roman,serif" font-size="14.00">bary 1002.0</text>
</g>
<!-- 0_2&#45;&#45;1_vnode_0_2_3_4 -->
<g id="edge10" class="edge">
<title>0_2&#45;&#45;1_vnode_0_2_3_4</title>
<path fill="none" stroke="black" d="M376.97,-25.13C493.42,-54.25 927.42,-162.75 947.7,-167.82"/>
</g>
<!-- 1_vnode_0_2_2_1&#45;&#45;2_1 -->
<g id="edge19" class="edge">
<title>1_vnode_0_2_2_1&#45;&#45;2_1</title>
<path fill="none" stroke="black" d="M797.95,-168.24C787.71,-173.36 618.43,-258 539,-297.72"/>
</g>
<!-- 2_vnode_0_2_3_4 -->
<g id="node17" class="node">
<title>2_vnode_0_2_3_4</title>
<ellipse fill="none" stroke="black" cx="948.44" cy="-318" rx="0.36" ry="0.72"/>
<text text-anchor="middle" x="948.44" y="-320.45" font-family="Times New Roman,serif" font-size="14.00">(6, 2)</text>
<text text-anchor="middle" x="948.44" y="-304.7" font-family="Times New Roman,serif" font-size="14.00">bary 1006.0</text>
</g>
<!-- 1_vnode_0_2_3_4&#45;&#45;2_vnode_0_2_3_4 -->
<g id="edge20" class="edge">
<title>1_vnode_0_2_3_4&#45;&#45;2_vnode_0_2_3_4</title>
<path fill="none" stroke="black" d="M948.44,-168.96C948.44,-181.13 948.44,-305.5 948.44,-317.13"/>
</g>
<!-- 3_3 -->
<g id="node18" class="node">
<title>3_3</title>
<ellipse fill="none" stroke="black" cx="48.44" cy="-468" rx="48.44" ry="27.93"/>
<text text-anchor="middle" x="48.44" y="-470.45" font-family="Times New Roman,serif" font-size="14.00">(0, 3)</text>
<text text-anchor="middle" x="48.44" y="-454.7" font-family="Times New Roman,serif" font-size="14.00">bary 2.25</text>
</g>
<!-- 2_1&#45;&#45;3_3 -->
<g id="edge24" class="edge">
<title>2_1&#45;&#45;3_3</title>
<path fill="none" stroke="black" d="M450.28,-334.05C361.74,-363.57 174.5,-425.98 90.63,-453.94"/>
</g>
<!-- 3_4 -->
<g id="node19" class="node">
<title>3_4</title>
<ellipse fill="none" stroke="black" cx="498.44" cy="-468" rx="43.66" ry="27.93"/>
<text text-anchor="middle" x="498.44" y="-470.45" font-family="Times New Roman,serif" font-size="14.00">(3, 3)</text>
<text text-anchor="middle" x="498.44" y="-454.7" font-family="Times New Roman,serif" font-size="14.00">bary 3.5</text>
</g>
<!-- 2_1&#45;&#45;3_4 -->
<g id="edge27" class="edge">
<title>2_1&#45;&#45;3_4</title>
<path fill="none" stroke="black" d="M498.44,-346.21C498.44,-372.95 498.44,-412.88 498.44,-439.66"/>
</g>
<!-- 3_2 -->
<g id="node20" class="node">
<title>3_2</title>
<ellipse fill="none" stroke="black" cx="198.44" cy="-468" rx="43.66" ry="27.93"/>
<text text-anchor="middle" x="198.44" y="-470.45" font-family="Times New Roman,serif" font-size="14.00">(1, 3)</text>
<text text-anchor="middle" x="198.44" y="-454.7" font-family="Times New Roman,serif" font-size="14.00">bary 3.0</text>
</g>
<!-- 2_1&#45;&#45;3_2 -->
<g id="edge25" class="edge">
<title>2_1&#45;&#45;3_2</title>
<path fill="none" stroke="black" d="M457.98,-338.23C398.64,-367.9 289.02,-422.71 233.15,-450.65"/>
</g>
<!-- 3_1 -->
<g id="node21" class="node">
<title>3_1</title>
<ellipse fill="none" stroke="black" cx="348.44" cy="-468" rx="43.66" ry="27.93"/>
<text text-anchor="middle" x="348.44" y="-470.45" font-family="Times New Roman,serif" font-size="14.00">(2, 3)</text>
<text text-anchor="middle" x="348.44" y="-454.7" font-family="Times New Roman,serif" font-size="14.00">bary 3.5</text>
</g>
<!-- 2_1&#45;&#45;3_1 -->
<g id="edge26" class="edge">
<title>2_1&#45;&#45;3_1</title>
<path fill="none" stroke="black" d="M472.99,-343.45C444.74,-371.7 399.51,-416.93 372.03,-444.41"/>
</g>
<!-- 2_vnode_0_0_3_3&#45;&#45;3_3 -->
<g id="edge21" class="edge">
<title>2_vnode_0_0_3_3&#45;&#45;3_3</title>
<path fill="none" stroke="black" d="M48.44,-318.96C48.44,-328.02 48.44,-399.15 48.44,-439.78"/>
</g>
<!-- 2_vnode_0_1_3_4&#45;&#45;3_4 -->
<g id="edge22" class="edge">
<title>2_vnode_0_1_3_4&#45;&#45;3_4</title>
<path fill="none" stroke="black" d="M198.92,-318.24C209.43,-323.5 387.2,-412.38 463.79,-450.68"/>
</g>
<!-- 2_vnode_1_0_3_3&#45;&#45;3_3 -->
<g id="edge23" class="edge">
<title>2_vnode_1_0_3_3&#45;&#45;3_3</title>
<path fill="none" stroke="black" d="M347.95,-318.24C337.55,-323.44 163.2,-410.62 85.41,-449.52"/>
</g>
<!-- 2_0&#45;&#45;3_3 -->
<g id="edge28" class="edge">
<title>2_0&#45;&#45;3_3</title>
<path fill="none" stroke="black" d="M607.67,-328.19C499.53,-355.23 205.97,-428.62 93.3,-456.78"/>
</g>
<!-- 2_0&#45;&#45;3_4 -->
<g id="edge30" class="edge">
<title>2_0&#45;&#45;3_4</title>
<path fill="none" stroke="black" d="M624.67,-341.77C596.58,-369.86 550.13,-416.3 522.09,-444.34"/>
</g>
<!-- 2_0&#45;&#45;3_1 -->
<g id="edge29" class="edge">
<title>2_0&#45;&#45;3_1</title>
<path fill="none" stroke="black" d="M613.73,-335.35C556.05,-364.2 441.08,-421.68 383.29,-450.57"/>
</g>
<!-- 3_0 -->
<g id="node22" class="node">
<title>3_0</title>
<ellipse fill="none" stroke="black" cx="648.44" cy="-468" rx="43.66" ry="27.93"/>
<text text-anchor="middle" x="648.44" y="-470.45" font-family="Times New Roman,serif" font-size="14.00">(4, 3)</text>
<text text-anchor="middle" x="648.44" y="-454.7" font-family="Times New Roman,serif" font-size="14.00">bary 4.5</text>
</g>
<!-- 2_0&#45;&#45;3_0 -->
<g id="edge31" class="edge">
<title>2_0&#45;&#45;3_0</title>
<path fill="none" stroke="black" d="M648.44,-346.21C648.44,-372.95 648.44,-412.88 648.44,-439.66"/>
</g>
<!-- 2_vnode_1_1_3_0&#45;&#45;3_0 -->
<g id="edge32" class="edge">
<title>2_vnode_1_1_3_0&#45;&#45;3_0</title>
<path fill="none" stroke="black" d="M797.77,-318.67C789.78,-326.66 712.19,-404.24 672.13,-444.31"/>
</g>
<!-- 2_vnode_0_2_3_4&#45;&#45;3_4 -->
<g id="edge33" class="edge">
<title>2_vnode_0_2_3_4&#45;&#45;3_4</title>
<path fill="none" stroke="black" d="M947.71,-318.24C931.32,-323.7 643.61,-419.61 537.41,-455.01"/>
</g>
</g>
</svg>
